<?xml version="1.0" encoding="UTF-8"?>
<svg xmlns="http://www.w3.org/2000/svg" width="17" height="22" viewBox="0 0 17 22">
	<title>
		Combined Shape
	</title>
	<g id="Page-1" fill="none" fill-rule="evenodd" stroke="none" stroke-width="1">
		<path id="Combined-Shape" fill="#72777D" d="M10.8181818,0 L17,5.5 L17,20.625 C17,21.3843915 16.3843915,22 15.625,22 L1.375,22 C0.615608469,22 9.29986408e-17,21.3843915 0,20.625 L0,1.375 C-9.29986408e-17,0.615608469 0.615608469,1.39497961e-16 1.375,0 L10.8181818,0 Z M7.9354393,6.875 C5.89994282,6.875 4.25,8.47641509 4.25,10.452044 C4.25,12.427673 5.89994282,14.0290881 7.9354393,14.0290881 C8.84829426,14.0290881 9.68744044,13.7044025 10.3338098,13.1650943 L10.4868973,13.3191824 L10.4868973,13.7539308 L13.3218506,16.5 L14.1666667,15.6800314 L11.3373833,12.9284591 L10.8894606,12.9284591 L10.7307033,12.7798742 C11.2863541,12.1525157 11.6208786,11.3380503 11.6208786,10.452044 C11.6208786,8.47641509 9.97093577,6.875 7.9354393,6.875 Z M7.9354393,7.97562893 C9.34724605,7.97562893 10.4868973,9.08176101 10.4868973,10.452044 C10.4868973,11.822327 9.34724605,12.9284591 7.9354393,12.9284591 C6.52363255,12.9284591 5.38398132,11.822327 5.38398132,10.452044 C5.38398132,9.08176101 6.52363255,7.97562893 7.9354393,7.97562893 Z"/>
	</g>
</svg>
